<?xml version="1.0" encoding="UTF-8" standalone="no"?>
<!DOCTYPE svg PUBLIC "-//W3C//DTD SVG 1.1//EN"
 "http://www.w3.org/Graphics/SVG/1.1/DTD/svg11.dtd">
<!-- Generated by graphviz version 15.1.0 (0)
 -->
<!-- Title: oracle_to_postgresql_tables Pages: 1 -->
<svg width="846pt" height="1146pt"
 viewBox="0.00 0.00 846.00 1146.00" xmlns="http://www.w3.org/2000/svg" xmlns:xlink="http://www.w3.org/1999/xlink">
<g id="graph0" class="graph" transform="scale(1 1) rotate(0) translate(4 1142.25)">
<title>oracle_to_postgresql_tables</title>
<polygon fill="white" stroke="none" points="-4,4 -4,-1142.25 842.12,-1142.25 842.12,4 -4,4"/>
<text xml:space="preserve" text-anchor="middle" x="419.06" y="-1115.25" font-family="Times,serif" font-size="20.00">Oracle Source Tables/Views To PostgreSQL Destination Tables</text>
<g id="clust1" class="cluster">
<title>cluster_postgresql</title>
<path fill="none" stroke="#d0d0d0" d="M639.75,-48.25C639.75,-48.25 826,-48.25 826,-48.25 832,-48.25 838,-54.25 838,-60.25 838,-60.25 838,-683.25 838,-683.25 838,-689.25 832,-695.25 826,-695.25 826,-695.25 639.75,-695.25 639.75,-695.25 633.75,-695.25 627.75,-689.25 627.75,-683.25 627.75,-683.25 627.75,-60.25 627.75,-60.25 627.75,-54.25 633.75,-48.25 639.75,-48.25"/>
<text xml:space="preserve" text-anchor="middle" x="732.88" y="-672.25" font-family="Times,serif" font-size="20.00">PostgreSQL destinations</text>
</g>
<!-- oracle_metric_sources -->
<g id="node1" class="node">
<title>oracle_metric_sources</title>
<polygon fill="#f3d99b" stroke="none" points="0,-1080.25 0,-1107.75 375.5,-1107.75 375.5,-1080.25 0,-1080.25"/>
<polygon fill="none" stroke="black" points="0,-1080.25 0,-1107.75 375.5,-1107.75 375.5,-1080.25 0,-1080.25"/>
<text xml:space="preserve" text-anchor="start" x="70.75" y="-1091.3" font-family="Helvetica,sans-Serif" font-weight="bold" font-size="11.00">Oracle sources for additional metric samples</text>
<polygon fill="none" stroke="black" points="0,-1052.75 0,-1080.25 375.5,-1080.25 375.5,-1052.75 0,-1052.75"/>
<text xml:space="preserve" text-anchor="start" x="7" y="-1062.75" font-family="Helvetica,sans-Serif" font-size="11.00">DUAL</text>
<polygon fill="none" stroke="black" points="0,-1025.25 0,-1052.75 375.5,-1052.75 375.5,-1025.25 0,-1025.25"/>
<text xml:space="preserve" text-anchor="start" x="7" y="-1035.25" font-family="Helvetica,sans-Serif" font-size="11.00">GV$ASM_DISKGROUP_STAT</text>
<polygon fill="none" stroke="black" points="0,-997.75 0,-1025.25 375.5,-1025.25 375.5,-997.75 0,-997.75"/>
<text xml:space="preserve" text-anchor="start" x="7" y="-1007.75" font-family="Helvetica,sans-Serif" font-size="11.00">GV$CON_SYSMETRIC</text>
<polygon fill="none" stroke="black" points="0,-970.25 0,-997.75 375.5,-997.75 375.5,-970.25 0,-970.25"/>
<text xml:space="preserve" text-anchor="start" x="7" y="-980.25" font-family="Helvetica,sans-Serif" font-size="11.00">GV$DATABASE</text>
<polygon fill="none" stroke="black" points="0,-942.75 0,-970.25 375.5,-970.25 375.5,-942.75 0,-942.75"/>
<text xml:space="preserve" text-anchor="start" x="7" y="-952.75" font-family="Helvetica,sans-Serif" font-size="11.00">GV$DATAFILE</text>
<polygon fill="none" stroke="black" points="0,-915.25 0,-942.75 375.5,-942.75 375.5,-915.25 0,-915.25"/>
<text xml:space="preserve" text-anchor="start" x="7" y="-925.25" font-family="Helvetica,sans-Serif" font-size="11.00">GV$INSTANCE</text>
<polygon fill="none" stroke="black" points="0,-887.75 0,-915.25 375.5,-915.25 375.5,-887.75 0,-887.75"/>
<text xml:space="preserve" text-anchor="start" x="7" y="-897.75" font-family="Helvetica,sans-Serif" font-size="11.00">GV$PARAMETER</text>
<polygon fill="none" stroke="black" points="0,-860.25 0,-887.75 375.5,-887.75 375.5,-860.25 0,-860.25"/>
<text xml:space="preserve" text-anchor="start" x="7" y="-870.25" font-family="Helvetica,sans-Serif" font-size="11.00">GV$PROCESS</text>
<polygon fill="none" stroke="black" points="0,-832.75 0,-860.25 375.5,-860.25 375.5,-832.75 0,-832.75"/>
<text xml:space="preserve" text-anchor="start" x="7" y="-842.75" font-family="Helvetica,sans-Serif" font-size="11.00">GV$RESOURCE_LIMIT</text>
<polygon fill="none" stroke="black" points="0,-805.25 0,-832.75 375.5,-832.75 375.5,-805.25 0,-805.25"/>
<text xml:space="preserve" text-anchor="start" x="7" y="-815.25" font-family="Helvetica,sans-Serif" font-size="11.00">GV$SESSION</text>
<polygon fill="none" stroke="black" points="0,-777.75 0,-805.25 375.5,-805.25 375.5,-777.75 0,-777.75"/>
<text xml:space="preserve" text-anchor="start" x="7" y="-787.75" font-family="Helvetica,sans-Serif" font-size="11.00">GV$SYSSTAT</text>
<polygon fill="none" stroke="black" points="0,-750.25 0,-777.75 375.5,-777.75 375.5,-750.25 0,-750.25"/>
<text xml:space="preserve" text-anchor="start" x="7" y="-760.25" font-family="Helvetica,sans-Serif" font-size="11.00">GV$SYSTEM_WAIT_CLASS</text>
<polygon fill="none" stroke="black" points="0,-722.75 0,-750.25 375.5,-750.25 375.5,-722.75 0,-722.75"/>
<text xml:space="preserve" text-anchor="start" x="7" y="-732.75" font-family="Helvetica,sans-Serif" font-size="11.00">DBA_TABLESPACE_USAGE_METRICS</text>
<polygon fill="none" stroke="black" points="0,-695.25 0,-722.75 375.5,-722.75 375.5,-695.25 0,-695.25"/>
<text xml:space="preserve" text-anchor="start" x="7" y="-705.25" font-family="Helvetica,sans-Serif" font-size="11.00">DBA_TABLESPACES</text>
<polygon fill="none" stroke="black" points="0,-667.75 0,-695.25 375.5,-695.25 375.5,-667.75 0,-667.75"/>
<text xml:space="preserve" text-anchor="start" x="7" y="-677.75" font-family="Helvetica,sans-Serif" font-size="11.00">DBA_TEMP_FREE_SPACE</text>
<polygon fill="none" stroke="black" points="0,-626.75 0,-667.75 375.5,-667.75 375.5,-626.75 0,-626.75"/>
<text xml:space="preserve" text-anchor="start" x="11.88" y="-650.25" font-family="Helvetica,sans-Serif" font-size="11.00">Additional examples: GV$SQL, USER_SEGMENTS, DBA_SEGMENTS,</text>
<text xml:space="preserve" text-anchor="start" x="7" y="-636.75" font-family="Helvetica,sans-Serif" font-size="11.00">GV$AQ_SHARDED_SUBSCRIBER_STAT, GV$PERSISTENT_QUEUES</text>
</g>
<!-- pg_oracle_metric_samples -->
<g id="node7" class="node">
<title>pg_oracle_metric_samples</title>
<path fill="#e8f1ff" stroke="black" d="M783.5,-656.25C783.5,-656.25 681.25,-656.25 681.25,-656.25 675.25,-656.25 669.25,-650.25 669.25,-644.25 669.25,-644.25 669.25,-632.25 669.25,-632.25 669.25,-626.25 675.25,-620.25 681.25,-620.25 681.25,-620.25 783.5,-620.25 783.5,-620.25 789.5,-620.25 795.5,-626.25 795.5,-632.25 795.5,-632.25 795.5,-644.25 795.5,-644.25 795.5,-650.25 789.5,-656.25 783.5,-656.25"/>
<text xml:space="preserve" text-anchor="middle" x="732.38" y="-634.55" font-family="Helvetica,sans-Serif" font-size="11.00">oracle_metric_samples</text>
</g>
<!-- oracle_metric_sources&#45;&gt;pg_oracle_metric_samples -->
<g id="edge1" class="edge">
<title>oracle_metric_sources&#45;&gt;pg_oracle_metric_samples</title>
<path fill="none" stroke="black" d="M375.49,-788.44C481.78,-743.59 607.31,-690.61 677.28,-661.08"/>
<polygon fill="black" stroke="black" points="678.36,-664.42 686.21,-657.31 675.64,-657.97 678.36,-664.42"/>
<text xml:space="preserve" text-anchor="middle" x="505.62" y="-768.96" font-family="Helvetica,sans-Serif" font-size="10.00">additional metric definitions</text>
</g>
<!-- oracle_sql_sources -->
<g id="node2" class="node">
<title>oracle_sql_sources</title>
<polygon fill="#f3d99b" stroke="none" points="96.38,-541.25 96.38,-568.75 279.12,-568.75 279.12,-541.25 96.38,-541.25"/>
<polygon fill="none" stroke="black" points="96.38,-541.25 96.38,-568.75 279.12,-568.75 279.12,-541.25 96.38,-541.25"/>
<text xml:space="preserve" text-anchor="start" x="103.38" y="-552.3" font-family="Helvetica,sans-Serif" font-weight="bold" font-size="11.00">Oracle sources for SQL samples</text>
<polygon fill="none" stroke="black" points="96.38,-513.75 96.38,-541.25 279.12,-541.25 279.12,-513.75 96.38,-513.75"/>
<text xml:space="preserve" text-anchor="start" x="103.38" y="-523.75" font-family="Helvetica,sans-Serif" font-size="11.00">GV$SQLSTATS</text>
</g>
<!-- pg_oracle_sql_samples -->
<g id="node8" class="node">
<title>pg_oracle_sql_samples</title>
<path fill="#e8f1ff" stroke="black" d="M775.62,-562.25C775.62,-562.25 689.12,-562.25 689.12,-562.25 683.12,-562.25 677.12,-556.25 677.12,-550.25 677.12,-550.25 677.12,-538.25 677.12,-538.25 677.12,-532.25 683.12,-526.25 689.12,-526.25 689.12,-526.25 775.62,-526.25 775.62,-526.25 781.62,-526.25 787.62,-532.25 787.62,-538.25 787.62,-538.25 787.62,-550.25 787.62,-550.25 787.62,-556.25 781.62,-562.25 775.62,-562.25"/>
<text xml:space="preserve" text-anchor="middle" x="732.38" y="-540.55" font-family="Helvetica,sans-Serif" font-size="11.00">oracle_sql_samples</text>
</g>
<!-- oracle_sql_sources&#45;&gt;pg_oracle_sql_samples -->
<g id="edge2" class="edge">
<title>oracle_sql_sources&#45;&gt;pg_oracle_sql_samples</title>
<path fill="none" stroke="black" d="M278.96,-541.75C387.99,-542.35 568.84,-543.35 665.56,-543.89"/>
<polygon fill="black" stroke="black" points="665.39,-547.39 675.41,-543.94 665.43,-540.39 665.39,-547.39"/>
<text xml:space="preserve" text-anchor="middle" x="505.62" y="-545.86" font-family="Helvetica,sans-Serif" font-size="10.00">performance sampler</text>
</g>
<!-- oracle_sql_plan_sources -->
<g id="node3" class="node">
<title>oracle_sql_plan_sources</title>
<polygon fill="#f3d99b" stroke="none" points="83.62,-426 83.62,-453.5 291.88,-453.5 291.88,-426 83.62,-426"/>
<polygon fill="none" stroke="black" points="83.62,-426 83.62,-453.5 291.88,-453.5 291.88,-426 83.62,-426"/>
<text xml:space="preserve" text-anchor="start" x="90.62" y="-437.05" font-family="Helvetica,sans-Serif" font-weight="bold" font-size="11.00">Oracle sources for cached SQL plans</text>
<polygon fill="none" stroke="black" points="83.62,-398.5 83.62,-426 291.88,-426 291.88,-398.5 83.62,-398.5"/>
<text xml:space="preserve" text-anchor="start" x="90.62" y="-408.5" font-family="Helvetica,sans-Serif" font-size="11.00">GV$SQL</text>
<polygon fill="none" stroke="black" points="83.62,-371 83.62,-398.5 291.88,-398.5 291.88,-371 83.62,-371"/>
<text xml:space="preserve" text-anchor="start" x="90.62" y="-381" font-family="Helvetica,sans-Serif" font-size="11.00">GV$SQL_PLAN</text>
</g>
<!-- pg_oracle_sql_texts -->
<g id="node9" class="node">
<title>pg_oracle_sql_texts</title>
<path fill="#e8f1ff" stroke="black" d="M767,-468.25C767,-468.25 697.75,-468.25 697.75,-468.25 691.75,-468.25 685.75,-462.25 685.75,-456.25 685.75,-456.25 685.75,-444.25 685.75,-444.25 685.75,-438.25 691.75,-432.25 697.75,-432.25 697.75,-432.25 767,-432.25 767,-432.25 773,-432.25 779,-438.25 779,-444.25 779,-444.25 779,-456.25 779,-456.25 779,-462.25 773,-468.25 767,-468.25"/>
<text xml:space="preserve" text-anchor="middle" x="732.38" y="-446.55" font-family="Helvetica,sans-Serif" font-size="11.00">oracle_sql_texts</text>
</g>
<!-- oracle_sql_plan_sources&#45;&gt;pg_oracle_sql_texts -->
<g id="edge3" class="edge">
<title>oracle_sql_plan_sources&#45;&gt;pg_oracle_sql_texts</title>
<path fill="none" stroke="black" d="M291.77,-419.46C405.14,-427.4 583.3,-439.88 674.07,-446.24"/>
<polygon fill="black" stroke="black" points="673.76,-449.72 683.98,-446.93 674.25,-442.74 673.76,-449.72"/>
<text xml:space="preserve" text-anchor="middle" x="505.62" y="-441.52" font-family="Helvetica,sans-Serif" font-size="10.00">bounded SQL_FULLTEXT dictionary</text>
</g>
<!-- pg_oracle_sql_plans -->
<g id="node10" class="node">
<title>pg_oracle_sql_plans</title>
<path fill="#e8f1ff" stroke="black" d="M768.5,-374.25C768.5,-374.25 696.25,-374.25 696.25,-374.25 690.25,-374.25 684.25,-368.25 684.25,-362.25 684.25,-362.25 684.25,-350.25 684.25,-350.25 684.25,-344.25 690.25,-338.25 696.25,-338.25 696.25,-338.25 768.5,-338.25 768.5,-338.25 774.5,-338.25 780.5,-344.25 780.5,-350.25 780.5,-350.25 780.5,-362.25 780.5,-362.25 780.5,-368.25 774.5,-374.25 768.5,-374.25"/>
<text xml:space="preserve" text-anchor="middle" x="732.38" y="-352.55" font-family="Helvetica,sans-Serif" font-size="11.00">oracle_sql_plans</text>
</g>
<!-- oracle_sql_plan_sources&#45;&gt;pg_oracle_sql_plans -->
<g id="edge4" class="edge">
<title>oracle_sql_plan_sources&#45;&gt;pg_oracle_sql_plans</title>
<path fill="none" stroke="black" d="M291.77,-401.62C404.52,-389.98 581.35,-371.73 672.57,-362.32"/>
<polygon fill="black" stroke="black" points="672.7,-365.82 682.29,-361.32 671.98,-358.86 672.7,-365.82"/>
<text xml:space="preserve" text-anchor="middle" x="505.62" y="-390.1" font-family="Helvetica,sans-Serif" font-size="10.00">bounded cursor&#45;plan collector</text>
</g>
<!-- oracle_session_sources -->
<g id="node4" class="node">
<title>oracle_session_sources</title>
<polygon fill="#f3d99b" stroke="none" points="87.38,-281.25 87.38,-308.75 288.12,-308.75 288.12,-281.25 87.38,-281.25"/>
<polygon fill="none" stroke="black" points="87.38,-281.25 87.38,-308.75 288.12,-308.75 288.12,-281.25 87.38,-281.25"/>
<text xml:space="preserve" text-anchor="start" x="94.38" y="-292.3" font-family="Helvetica,sans-Serif" font-weight="bold" font-size="11.00">Oracle sources for session samples</text>
<polygon fill="none" stroke="black" points="87.38,-253.75 87.38,-281.25 288.12,-281.25 288.12,-253.75 87.38,-253.75"/>
<text xml:space="preserve" text-anchor="start" x="94.38" y="-263.75" font-family="Helvetica,sans-Serif" font-size="11.00">GV$SESSION</text>
</g>
<!-- pg_oracle_session_samples -->
<g id="node11" class="node">
<title>pg_oracle_session_samples</title>
<path fill="#e8f1ff" stroke="black" d="M786.88,-280.25C786.88,-280.25 677.88,-280.25 677.88,-280.25 671.88,-280.25 665.88,-274.25 665.88,-268.25 665.88,-268.25 665.88,-256.25 665.88,-256.25 665.88,-250.25 671.88,-244.25 677.88,-244.25 677.88,-244.25 786.88,-244.25 786.88,-244.25 792.88,-244.25 798.88,-250.25 798.88,-256.25 798.88,-256.25 798.88,-268.25 798.88,-268.25 798.88,-274.25 792.88,-280.25 786.88,-280.25"/>
<text xml:space="preserve" text-anchor="middle" x="732.38" y="-258.55" font-family="Helvetica,sans-Serif" font-size="11.00">oracle_session_samples</text>
</g>
<!-- oracle_session_sources&#45;&gt;pg_oracle_session_samples -->
<g id="edge5" class="edge">
<title>oracle_session_sources&#45;&gt;pg_oracle_session_samples</title>
<path fill="none" stroke="black" d="M287.96,-277.78C393.46,-274.08 558.1,-268.32 654.28,-264.95"/>
<polygon fill="black" stroke="black" points="654.28,-268.45 664.15,-264.6 654.03,-261.46 654.28,-268.45"/>
<text xml:space="preserve" text-anchor="middle" x="505.62" y="-275.39" font-family="Helvetica,sans-Serif" font-size="10.00">performance sampler</text>
</g>
<!-- oracle_blocking_session_sources -->
<g id="node5" class="node">
<title>oracle_blocking_session_sources</title>
<polygon fill="#f3d99b" stroke="none" points="63.38,-168.25 63.38,-195.75 312.12,-195.75 312.12,-168.25 63.38,-168.25"/>
<polygon fill="none" stroke="black" points="63.38,-168.25 63.38,-195.75 312.12,-195.75 312.12,-168.25 63.38,-168.25"/>
<text xml:space="preserve" text-anchor="start" x="70.38" y="-179.3" font-family="Helvetica,sans-Serif" font-weight="bold" font-size="11.00">Oracle sources for blocking session samples</text>
<polygon fill="none" stroke="black" points="63.38,-140.75 63.38,-168.25 312.12,-168.25 312.12,-140.75 63.38,-140.75"/>
<text xml:space="preserve" text-anchor="start" x="70.38" y="-150.75" font-family="Helvetica,sans-Serif" font-size="11.00">GV$SESSION self&#45;join</text>
</g>
<!-- pg_oracle_blocking_session_samples -->
<g id="node12" class="node">
<title>pg_oracle_blocking_session_samples</title>
<path fill="#e8f1ff" stroke="black" d="M809.38,-186.25C809.38,-186.25 655.38,-186.25 655.38,-186.25 649.38,-186.25 643.38,-180.25 643.38,-174.25 643.38,-174.25 643.38,-162.25 643.38,-162.25 643.38,-156.25 649.38,-150.25 655.38,-150.25 655.38,-150.25 809.38,-150.25 809.38,-150.25 815.38,-150.25 821.38,-156.25 821.38,-162.25 821.38,-162.25 821.38,-174.25 821.38,-174.25 821.38,-180.25 815.38,-186.25 809.38,-186.25"/>
<text xml:space="preserve" text-anchor="middle" x="732.38" y="-164.55" font-family="Helvetica,sans-Serif" font-size="11.00">oracle_blocking_session_samples</text>
</g>
<!-- oracle_blocking_session_sources&#45;&gt;pg_oracle_blocking_session_samples -->
<g id="edge6" class="edge">
<title>oracle_blocking_session_sources&#45;&gt;pg_oracle_blocking_session_samples</title>
<path fill="none" stroke="black" d="M311.88,-168.25C408.59,-168.25 541.52,-168.25 631.64,-168.25"/>
<polygon fill="black" stroke="black" points="631.45,-171.75 641.45,-168.25 631.45,-164.75 631.45,-171.75"/>
<text xml:space="preserve" text-anchor="middle" x="505.62" y="-170.75" font-family="Helvetica,sans-Serif" font-size="10.00">blocking sampler</text>
</g>
<!-- oracle_database_activity_sources -->
<g id="node6" class="node">
<title>oracle_database_activity_sources</title>
<polygon fill="#f3d99b" stroke="none" points="26.25,-55 26.25,-82.5 349.25,-82.5 349.25,-55 26.25,-55"/>
<polygon fill="none" stroke="black" points="26.25,-55 26.25,-82.5 349.25,-82.5 349.25,-55 26.25,-55"/>
<text xml:space="preserve" text-anchor="start" x="70.75" y="-66.05" font-family="Helvetica,sans-Serif" font-weight="bold" font-size="11.00">Oracle sources for database activity samples</text>
<polygon fill="none" stroke="black" points="26.25,-27.5 26.25,-55 349.25,-55 349.25,-27.5 26.25,-27.5"/>
<text xml:space="preserve" text-anchor="start" x="33.25" y="-37.5" font-family="Helvetica,sans-Serif" font-size="11.00">GV$SESSION (default)</text>
<polygon fill="none" stroke="black" points="26.25,0 26.25,-27.5 349.25,-27.5 349.25,0 26.25,0"/>
<text xml:space="preserve" text-anchor="start" x="33.25" y="-10" font-family="Helvetica,sans-Serif" font-size="11.00">GV$ACTIVE_SESSION_HISTORY (optional, Diagnostics Pack)</text>
</g>
<!-- pg_oracle_database_activity_samples -->
<g id="node13" class="node">
<title>pg_oracle_database_activity_samples</title>
<path fill="#e8f1ff" stroke="black" d="M810.12,-92.25C810.12,-92.25 654.62,-92.25 654.62,-92.25 648.62,-92.25 642.62,-86.25 642.62,-80.25 642.62,-80.25 642.62,-68.25 642.62,-68.25 642.62,-62.25 648.62,-56.25 654.62,-56.25 654.62,-56.25 810.12,-56.25 810.12,-56.25 816.12,-56.25 822.12,-62.25 822.12,-68.25 822.12,-68.25 822.12,-80.25 822.12,-80.25 822.12,-86.25 816.12,-92.25 810.12,-92.25"/>
<text xml:space="preserve" text-anchor="middle" x="732.38" y="-70.55" font-family="Helvetica,sans-Serif" font-size="11.00">oracle_database_activity_samples</text>
</g>
<!-- oracle_database_activity_sources&#45;&gt;pg_oracle_database_activity_samples -->
<g id="edge7" class="edge">
<title>oracle_database_activity_sources&#45;&gt;pg_oracle_database_activity_samples</title>
<path fill="none" stroke="black" d="M348.99,-50.99C440.3,-56.55 551.9,-63.33 630.91,-68.14"/>
<polygon fill="black" stroke="black" points="630.62,-71.63 640.81,-68.74 631.04,-64.64 630.62,-71.63"/>
<text xml:space="preserve" text-anchor="middle" x="505.62" y="-67" font-family="Helvetica,sans-Serif" font-size="10.00">independent activity sampler</text>
</g>
</g>
</svg>
